<?xml version="1.0" standalone="no"?>
<!DOCTYPE svg PUBLIC "-//W3C//DTD SVG 20010904//EN"
 "http://www.w3.org/TR/2001/REC-SVG-20010904/DTD/svg10.dtd">
<svg version="1.0" xmlns="http://www.w3.org/2000/svg"
 width="360.000000pt" height="360.000000pt" viewBox="0 0 360.000000 360.000000"
 preserveAspectRatio="xMidYMid meet">
<metadata>
Created by potrace 1.14, written by Peter Selinger 2001-2017
</metadata>
<g transform="translate(0.000000,360.000000) scale(0.100000,-0.100000)"
fill="#000000" stroke="none">
<path d="M1258 2950 c-284 -97 -524 -180 -534 -184 -15 -6 -13 -10 14 -26 l32
-20 0 -242 c0 -210 -2 -244 -16 -260 -21 -22 -33 -125 -14 -113 7 4 24 -2 41
-14 35 -26 54 -27 44 -3 -4 9 -9 41 -12 69 -3 29 -12 58 -19 64 -11 9 -14 61
-14 251 0 225 1 240 18 234 26 -10 415 -217 430 -228 9 -8 12 -55 12 -175 l0
-165 53 73 c259 362 796 346 1038 -30 l29 -45 0 167 0 167 29 18 c16 9 135 73
264 142 130 68 233 128 229 131 -4 4 -207 75 -452 158 -245 84 -482 165 -528
181 -46 17 -93 30 -105 29 -12 0 -254 -81 -539 -179z"/>
<path d="M496 1340 c15 -560 24 -864 28 -867 2 -2 57 12 122 32 66 20 223 63
349 95 326 82 477 106 525 80 29 -15 60 -74 60 -113 l0 -36 220 -3 220 -3 0
40 c0 49 39 112 76 121 82 21 428 -53 878 -187 55 -16 101 -27 103 -25 5 4 34
1028 30 1032 -1 2 -24 -196 -51 -439 -26 -243 -49 -447 -51 -454 -3 -9 -26 -3
-77 18 -136 57 -257 98 -385 131 -114 29 -143 33 -268 33 -133 0 -143 -1 -197
-28 -68 -33 -101 -70 -125 -137 l-18 -50 -135 0 -135 0 -18 50 c-24 67 -57
104 -125 137 -55 27 -63 28 -202 27 -133 -1 -156 -4 -280 -36 -124 -33 -317
-101 -379 -133 -14 -7 -35 -15 -46 -17 -18 -3 -22 20 -71 452 l-52 455 4 -175z"/>
</g>
</svg>
